<?xml version="1.0" encoding="UTF-8"?>
<svg xmlns="http://www.w3.org/2000/svg" viewBox="215.04 425.67 211.5 108.83" width="505" height="260">
<path d="M336.5 516.98C331.04 519.07 315.47 518.72 309.87 516.87C309.87 501.28 309.87 485.7 309.87 470.11C299.78 469.59 289.6 469.95 279.5 469.94C274.4 469.93 268.23 468.96 263.5 470.9C260.98 474.74 261.95 480.01 261.95 484.5C261.95 494.31 263.48 507.08 261.49 516.5C257.25 518.97 240.34 518.76 235.5 517.17C233.63 513.11 234.46 507.96 234.46 503.5C234.46 494.18 232.83 479.07 235.07 470.5C241.08 468.76 256.61 472.09 260.46 467.95C263.99 464.16 260.96 448.85 262.5 443.1C266.13 441.37 270.48 442.01 274.5 442.01C280.06 442.01 285.98 441.33 291.3 443.26C295.72 444.87 298.56 448.46 301.84 451.65C307.92 457.57 313.85 463.66 319.82 469.68C325.33 475.23 334.07 481.23 336.55 488.91C338.12 493.79 337.88 512.05 336.5 516.98ZM411.5 517.21C406.06 518.9 390.09 518.88 385.01 516.5C385.01 500.98 385.01 485.46 385.01 469.94C374.17 469.94 363.34 469.94 352.5 469.93C347.42 469.93 341.68 470.89 337.14 468.5C337.14 460.17 337.14 451.83 337.14 443.5C341.27 441.33 345.89 442.01 350.5 442.01C356.08 442.01 361.79 441.44 367.11 443.44C371.23 444.99 373.98 448.44 377.05 451.45C383.27 457.55 389.38 463.77 395.55 469.94C400.72 475.1 408.2 480.51 411.25 487.27C414.01 493.38 412.88 500.97 412.89 507.5C412.89 510.99 413.41 514.25 411.5 517.21Z" fill="#000101" fill-rule="evenodd" stroke="#000101" stroke-width="0.25" stroke-linejoin="round"/>
</svg>
